<?xml version="1.0" encoding="UTF-8"?>
<svg id="Camada_1" data-name="Camada 1" xmlns="http://www.w3.org/2000/svg" viewBox="0 0 185 205">
  <rect width="185" height="205" style="fill: none;"/>
  <path d="M69.43,41.06h46.14c3.5,0,6.71,1.44,9,3.73,2.32,2.32,3.72,5.49,3.72,9v97.43c0,3.5-1.44,6.71-3.72,9-2.32,2.32-5.49,3.72-9,3.72h-46.14c-3.5,0-6.71-1.44-9-3.72-2.32-2.32-3.72-5.49-3.72-9V53.78c0-3.5,1.44-6.71,3.72-9,2.33-2.32,5.5-3.72,9-3.72h0Zm-2.57,73.57h50.85c.67,0,1.21,.54,1.21,1.21v20.17c0,.66-.54,1.21-1.21,1.21h-50.85c-.66,0-1.21,.19-1.21-.47v-20.18c0-.66,.55-1.94,1.21-1.94h0Zm15.55,15.3h-4.18l-.6,1.97h-3.77l4.5-11.95h4.04l4.48,11.95h-3.87l-.6-1.97h0Zm-.79-2.59l-1.3-4.29-1.31,4.29h2.61Zm6.22-7.39h5.49c1.08,0,1.96,.15,2.62,.44,.67,.29,1.22,.71,1.65,1.26,.44,.55,.75,1.19,.94,1.92,.2,.73,.3,1.5,.3,2.31,0,1.28-.15,2.27-.44,2.97-.29,.7-.69,1.29-1.21,1.77-.52,.48-1.07,.79-1.66,.95-.81,.22-1.54,.33-2.2,.33h-5.49v-11.95h0Zm3.69,2.7v6.53h.91c.77,0,1.32-.08,1.65-.26,.33-.17,.58-.47,.77-.9s.28-1.12,.28-2.07c0-1.27-.21-2.13-.62-2.6s-1.1-.7-2.06-.7h-.93Zm8.36,5.29l3.5-.22c.07,.57,.23,1,.46,1.3,.38,.48,.92,.72,1.63,.72,.53,0,.93-.12,1.22-.37s.43-.53,.43-.86c0-.31-.13-.59-.4-.83-.27-.24-.9-.47-1.89-.69-1.62-.36-2.77-.85-3.46-1.45s-1.04-1.37-1.04-2.3c0-.61,.18-1.19,.53-1.74,.36-.55,.89-.98,1.6-1.29s1.69-.47,2.94-.47c1.53,0,2.69,.28,3.49,.85,.8,.57,1.28,1.47,1.43,2.71l-3.47,.21c-.09-.54-.29-.94-.58-1.18-.3-.25-.71-.37-1.23-.37-.43,0-.75,.09-.97,.27s-.33,.4-.33,.66c0,.19,.09,.36,.26,.51,.17,.16,.58,.3,1.23,.44,1.61,.34,2.77,.7,3.46,1.06,.7,.36,1.21,.8,1.52,1.32,.32,.53,.48,1.12,.48,1.77,0,.77-.21,1.47-.63,2.12-.42,.65-1.02,1.14-1.78,1.47s-1.72,.5-2.87,.5c-2.03,0-3.44-.39-4.22-1.17-.77-.77-1.21-1.76-1.31-2.97h0Zm-26.29-34.59c-.15,.63-.08,1.36,.15,2.11,.1,.32,.23,.65,.38,.96,.16,.32,.34,.64,.55,.95,.21,.3,.44,.6,.68,.86,.24,.26,.5,.5,.76,.7h.01c.65,.51,1.37,.85,2.09,.91,.95,.08,2.34-.68,3.17-1.23l.18-.12h.02c.32-.22,.65-.42,.98-.63,.19-.11,.4-.14,.6-.09,.19,.04,.37,.16,.48,.33,.03,.04,.05,.08,.06,.12l.32,.57v.02c.42,.75,.83,1.48,1.26,2.21,.41,.7,.83,1.35,1.25,1.91v.02s.06,.07,.06,.07c.04,.06,.11,.16,.18,.25v.02c.27,.35,.54,.72,.81,1.05,.26,.32,.53,.59,.78,.77h0c.18,.12,.36,.19,.53,.14,.2-.05,.42-.22,.67-.55,.05-.09,.11-.18,.16-.26l.16-.26h0c.16-.26,.32-.51,.44-.77,.09-.19,.15-.39,.18-.59-.09-.03-.21-.04-.34-.05h0c-.87-.1-1.72-.21-2-1.89h0s-.03-.22-.03-.22h0c-.03-.22-.06-.38-.08-.48-.01-.07-.03-.12-.03-.14h0v.02h0c-.07-.04-.16-.08-.28-.14l-.1-.04h-.01c-.28-.14-.51-.34-.69-.59-.19-.26-.33-.56-.42-.89h0c-.09-.32-.14-.68-.16-1.02-.02-.41-.01-.8,.03-1.13v-.02c.02-.14,.07-.26,.14-.37l.02-.02c.08-.1,.18-.19,.3-.24,.01,0,.02,0,.03,0,2.43-1.09,4.49-1.65,6.27-1.94,1.49-.24,2.78-.29,3.94-.3-2.41-1.59-4.88-4.14-6.96-6.98-2.13-2.91-3.86-6.13-4.7-8.96-.56,1.63-1.35,3.61-2.7,5.77-1.5,2.41-8.72,8.41-9.14,10.17h0Zm20.83-22.42c-.4-.23-.54-.74-.3-1.14,.23-.4,.74-.54,1.14-.3,2.23,1.29,5.07,4.03,7.47,7.17,2.13,2.81,3.93,5.96,4.64,8.74,.11,.45-.16,.91-.61,1.02s-.91-.16-1.02-.61c-.65-2.56-2.34-5.51-4.34-8.15-2.27-2.98-4.92-5.54-6.98-6.73h0Zm14.55-1.85c-.31-.34-.29-.87,.05-1.18s.87-.29,1.18,.05c.63,.68,1.26,1.41,1.86,2.17,.59,.74,1.16,1.51,1.7,2.29,.26,.38,.16,.9-.22,1.16s-.9,.16-1.16-.22c-.51-.75-1.06-1.48-1.62-2.19-.59-.73-1.19-1.43-1.79-2.08h0Zm-7.07,.81c-.35-.31-.38-.83-.07-1.18s.83-.38,1.18-.07c1.5,1.33,3.08,3.03,4.51,4.89,1.35,1.74,2.58,3.63,3.5,5.47,.21,.41,.04,.92-.37,1.12-.41,.21-.92,.04-1.12-.37-.87-1.74-2.04-3.53-3.33-5.2-1.38-1.78-2.88-3.4-4.3-4.66h0Zm-12.41,12.58c.81-.32,1.61-.47,2.4-.38,2.21,.24,3.82,1.98,3.63,4.26-.07,.86-.37,1.8-.91,2.83,.45,.43,.93,.87,1.45,1.31,.74,.64,1.49,1.2,2.23,1.67,.68,.42,1.36,.77,2.03,1.02,.07,0,.13-.03,.19-.04,.06-.02,.12-.05,.17-.08,.05-.03,.1-.07,.14-.12,.11-.22,.18-.48,.22-.78,.04-.32,.03-.68-.02-1.08h0c-.15-1.19-.66-2.62-1.42-4.15-.83-1.68-1.95-3.46-3.21-5.16-1.23-1.67-2.59-3.26-3.92-4.58-1.28-1.26-2.53-2.29-3.63-2.92h0c-.41-.24-.78-.41-1.12-.51h-.02c-.3-.1-.56-.13-.77-.1h0s-.09,0-.12,.02h-.01s-.05,.09-.08,.14c-.01,.02-.03,.05-.05,.1l-.03,.06v.03h0c-.11,.67-.01,1.54,.27,2.55,.29,1.08,.77,2.31,1.41,3.61,.39,.82,.78,1.59,1.18,2.3h0Zm-1.43,17.53h0Zm9.76-5.09h-.02c-2.44,.02-5.5,.05-9.83,1.92,0,.17,0,.34,.01,.51,.02,.2,.05,.4,.09,.58h0c.04,.13,.08,.24,.14,.33,.04,.07,.09,.12,.14,.15l.09,.04h.03c.47,.24,.71,.36,.94,.72h0c.18,.3,.23,.6,.32,1.16h0v.05s0,0,0,0h0l.03,.21h0c.08,.49,.35,.52,.61,.55h0c1.31,.15,1.77,.77,1.77,1.57,0,.72-.42,1.56-.92,2.31h0c-.06,.09-.11,.18-.15,.24-.05,.07-.09,.15-.14,.22l-.02,.04s0,.02-.02,.03c-.57,.81-1.15,1.21-1.73,1.32-.6,.11-1.17-.09-1.72-.47-.7-.49-1.31-1.29-1.88-2.06l-.09-.12-.09-.12h0l-.16-.21v-.02c-.46-.6-.89-1.28-1.32-2-.4-.67-.82-1.42-1.24-2.18h-.01c-.08,.06-.17,.12-.23,.16h0l-.31,.2h0c-1.26,.84-2.38,1.59-4.08,1.42-1.03-.1-2.03-.57-2.91-1.25-.34-.26-.66-.56-.95-.88-.3-.33-.58-.68-.83-1.05s-.47-.75-.66-1.14c-.19-.39-.35-.8-.48-1.2h0c-.31-1.03-.39-2.06-.18-2.97,.91-3.84,9.39-7.96,12.42-17.63h0c.14-.47,.27-.89,.41-1.27h0c.14-.38,.27-.71,.43-1v-.02c.09-.14,.16-.25,.23-.35,.09-.11,.18-.21,.3-.3,.12-.09,.25-.15,.39-.21,.14-.05,.29-.08,.47-.1h0c.43-.06,.91-.01,1.4,.14,.49,.14,1,.37,1.54,.67h.02c1.21,.7,2.55,1.79,3.91,3.13,1.41,1.39,2.83,3.06,4.12,4.81,1.32,1.8,2.51,3.69,3.39,5.48,.81,1.66,1.37,3.23,1.54,4.58,.07,.57,.08,1.11,0,1.6-.07,.48-.21,.92-.43,1.3h0c-.64,1.14-2.69,1.12-3.93,1.11-.16-.01-.3-.01-.42-.01h0Zm-5.35,53.39c2.88,0,5.24,2.32,5.24,5.24s-2.32,5.24-5.24,5.24-5.24-2.32-5.24-5.24c0-2.88,2.33-5.24,5.24-5.24h0Zm-32.16-3.98H124.64V55.63H60.32v88.69h0Z" style="fill: #363749; fill-rule: evenodd;"/>
</svg>