<?xml version="1.0" encoding="UTF-8"?>
<svg id="Camada_1" data-name="Camada 1" xmlns="http://www.w3.org/2000/svg" viewBox="0 0 1720.78 1049.09">
  <defs>
    <style>
      .cls-1 {
        fill: #363749;
        fill-rule: evenodd;
      }
    </style>
  </defs>
  <path class="cls-1" d="M813.97,803.83c66.95,139.65,269.91,144.55,334.06,.84-17.51-17.65-30.39-36.7-43.28-55.47-2.1-3.08-4.2-6.16-6.44-9.24-30.96,24.51-68.49,40.2-117.52,40.06-52.81-.14-92.59-20.31-125.08-50.14-1.96-1.82-3.92-3.64-5.74-5.46-4.62,13.03-10.65,28.43-16.95,43-6.16,13.87-12.75,27.03-19.05,36.42h0Zm901.9-150.29c3.22,5.32,4.9,11.07,4.9,17.09,0,31.52-48.6,57.01-108.69,57.01s-108.69-25.49-108.69-57.01c0-5.88,1.68-11.63,4.9-17.09,13.87,23.11,55.05,39.92,103.65,39.92,48.88,0,90.06-16.81,103.93-39.92h0Zm-246.38,84.74c3.22,5.32,4.9,11.07,4.9,17.09,0,31.52-48.6,57.01-108.69,57.01s-108.69-25.49-108.69-57.01c0-5.88,1.68-11.63,4.9-17.09,13.87,23.11,55.05,39.92,103.65,39.92s90.2-16.81,103.93-39.92h0Zm-87.82-83.2l-.28-14.15c3.22-.14,5.74-1.12,7.84-2.94,2.1-1.82,3.08-3.92,3.36-6.58,.28-2.94-.7-5.46-2.94-7.7-2.24-2.24-5.74-3.5-10.51-3.92-4.48-.42-7.98,.28-10.37,2.1s-3.78,4.34-4.06,7.56c-.28,4.06,1.12,7.84,4.48,11.35l-2.66,11.21-37.54-10.51,3.22-37.12,13.17,1.12-2.24,26.47,12.19,3.22c-1.26-3.22-1.82-6.58-1.54-9.8,.56-6.16,3.22-11.35,8.12-15.27,4.9-3.92,10.93-5.6,18.21-4.9,6.02,.56,11.21,2.8,15.69,6.58,6.02,5.32,8.68,12.19,7.98,20.73-.56,6.72-2.94,12.19-6.86,16.11-4.06,3.92-9.1,6.16-15.27,6.44h0Zm-15.83-56.59c49.3,0,89.36,15.69,89.36,35.02s-40.06,35.02-89.36,35.02-89.36-15.69-89.36-35.02,40.06-35.02,89.36-35.02h0Zm0-11.63c59.95,0,108.69,25.49,108.69,57.01s-48.6,57.01-108.69,57.01-108.69-25.49-108.69-57.01,48.74-57.01,108.69-57.01h0Zm104.07,94.97c2.94,5.18,4.62,10.65,4.62,16.39,0,31.52-48.6,57.01-108.69,57.01s-108.69-25.49-108.69-57.01c0-5.74,1.54-11.21,4.48-16.39,13.45,23.53,54.91,40.62,104.07,40.62,49.3-.14,90.9-17.23,104.21-40.62h0Zm181.53-146.09l-1.26,14.15-53.37-4.62c4.34,5.6,7.42,12.05,9.1,19.19l-12.89-1.12c-.84-3.78-2.8-7.98-5.74-12.61-3.08-4.62-6.72-7.98-11.07-9.94l.98-11.49,74.24,6.44h0Zm-39.36-22.13c49.3,0,89.36,15.69,89.36,35.02s-39.92,35.02-89.36,35.02-89.36-15.69-89.36-35.02c.14-19.33,40.06-35.02,89.36-35.02h0Zm0-11.63c59.95,0,108.69,25.49,108.69,57.01s-48.6,57.01-108.69,57.01-108.69-25.49-108.69-57.01,48.74-57.01,108.69-57.01h0Zm104.21,94.97c2.94,5.18,4.48,10.65,4.48,16.39,0,31.52-48.6,57.01-108.69,57.01s-108.69-25.49-108.69-57.01c0-5.74,1.54-11.21,4.62-16.39,13.45,23.53,54.91,40.62,104.07,40.62,49.16,0,90.76-17.23,104.21-40.62h0Zm-1.12,172.56c3.64,5.74,5.6,11.77,5.6,18.07,0,31.52-48.6,57.01-108.69,57.01s-108.69-25.49-108.69-57.01c0-6.3,1.96-12.47,5.6-18.07,14.43,22.55,55.19,38.8,103.09,38.8,47.9,.14,88.66-16.25,103.09-38.8h0Zm.42-58.55c3.36,5.46,5.18,11.21,5.18,17.23,0,31.52-48.6,57.01-108.69,57.01s-108.69-25.49-108.69-57.01c0-6.02,1.82-11.77,5.04-17.23,14.01,22.97,55.05,39.64,103.51,39.64s89.78-16.67,103.65-39.64h0Zm-1125.03,126.62c10.37,4.06,20.73,8.12,30.96,12.19,63.59-15.55,131.8-31.8,172.56-60.23,5.32-7.98,10.93-19.47,16.39-31.94,8.26-18.77,15.83-39.36,20.59-53.37-20.17-23.67-37.26-50.42-53.79-76.62l-54.49-86.56c-19.89-29.69-30.25-56.87-30.82-79.14-.28-10.51,1.54-20.03,5.32-28.29,4.06-8.82,10.22-16.11,18.77-21.71,3.92-2.66,8.26-4.9,13.17-6.72-3.5-46.92-4.9-106.17-2.52-155.62,1.12-11.77,3.36-23.53,6.72-35.3,13.87-49.72,48.74-89.78,92.02-117.24,23.81-15.13,49.86-26.61,77.18-34.32,17.23-4.9-14.71-60.23,3.08-62.05,86.42-8.82,226.35,70.03,286.72,135.31,30.25,32.78,49.16,76.06,53.37,133.49l-3.36,141.33h0c15.13,4.62,24.79,14.15,28.71,29.69,4.34,17.23-.42,41.32-14.99,74.38h0c-.28,.56-.56,1.26-.98,1.82l-62.05,102.25c-22.83,37.54-45.94,75.22-76.06,104.91,2.66,3.92,5.46,7.84,8.12,11.91,12.33,17.93,24.65,36,40.62,52.11,.56,.56,.98,1.12,1.4,1.68,71.43,50.42,229.43,62.61,296.24,99.87,22.13,12.33,42.16,28.15,58.27,49.3,14.57,19.33,35.86,69.19,45.94,110.37H1.86c-22.69-126.34,168.92-185.87,227.75-235.6,26.19-22.27,56.17-47.48,59.53-55.33-8.4-8.4-16.11-17.37-23.67-26.19l-32.78-37.96-24.37,.7-46.36,1.26c-39.78-45.8-37.26-143.99-33.48-200.86,18.49-114.02,62.61-196.1,134.47-243.58,48.6-32.22,77.74-33.9,134.47-34.04,49.58,0,79.98-1.12,122.28,26.75,137.97,90.76,180.69,305.07,113.18,449.48h-48.18l-3.08,3.64-4.34,5.04-20.87,25.21c-12.19,14.71-24.51,29.27-39.08,42.16,8.68,11.49,33.06,32.78,54.63,51.69,6.58,5.46,12.89,10.93,18.63,16.11h0Zm-152.11,103.09c.56-.84,1.12-1.68,1.82-2.38,16.11-21.29,36.14-36.98,58.27-49.3,10.65-5.88,23.67-11.21,38.24-16.11,7-12.05,12.33-25.63,15.69-40.9-20.45-17.93-42.02-37.12-51.55-49.44l-.98,.7c-23.53,16.11-52.53,26.75-92.02,26.61-36.98-.14-64.85-10.37-87.68-25.63-5.6-3.78-10.93-7.84-15.97-12.05-10.93,14.43-37.54,36.98-61.35,57.01l-5.18,4.2c-2.24,81.94,108.97,127.74,200.72,107.29h0Zm322.16-510.55c-12.05,.42-21.15,2.94-27.45,7.14-3.5,2.38-6.16,5.46-7.84,9.1-1.82,4.06-2.8,8.96-2.52,14.57,.42,16.53,9.1,38.24,25.91,63.17l.28,.42h0l54.49,86.56c21.85,34.74,44.68,70.03,73.12,96.09,27.31,25.07,60.51,41.88,104.35,42.02,47.48,.14,82.22-17.51,110.51-43.84,29.41-27.45,52.53-65.13,75.36-102.67l61.35-100.99c11.49-26.05,15.55-43.56,13.03-53.79-1.54-6.02-8.26-9.1-19.75-9.66-2.38-.14-4.9-.14-7.42-.14-2.8,.14-5.6,.28-8.54,.56-1.68,.14-3.22,0-4.76-.28-5.46,.28-11.07-.14-16.81-.98l21.01-93.01c-155.9,24.51-272.43-91.18-437.15-23.11l11.91,109.53c-7,.42-13.31,.14-19.05-.7h0ZM241.37,676.93c-38.52-131.8-20.45-252.82,83.2-356.47,18.35,59.25,59.39,108.13,129.28,144.27,33.48,24.79,65.69,54.77,97.07,89.22,5.6-22.83-15.55-50.56-41.32-79.14,23.81,11.77,45.52,28.15,61.07,59.67,17.93,36.7,17.65,67.51,11.77,107.29-1.82,12.19-4.48,23.95-7.84,35.02-1.12,.56-1.96,1.4-2.8,2.24-2.8,3.5-5.74,6.86-8.26,9.94-.98,1.12-1.82,2.24-4.34,5.18l-20.87,25.21c-15.97,19.33-32.22,38.52-52.95,52.67-19.89,13.59-44.26,22.55-77.74,22.55-30.82,0-54.21-8.82-73.54-21.57-20.03-13.31-36.14-31.52-51.41-49.3l-38.24-44.4c-.7-1.12-1.82-1.82-3.08-2.38h0Z"/>
</svg>