<?xml version="1.0" encoding="UTF-8"?>
<svg id="Capa_1" data-name="Capa 1" xmlns="http://www.w3.org/2000/svg" viewBox="0 0 92.22 100">
  <defs>
    <style>
      .cls-1 {
        fill: #636380;
      }
    </style>
  </defs>
  <path class="cls-1" d="M91.77,24.19c-.42-.75-1.13-1.15-2-1.15-3.74,0-12.38-5.64-20.74-11.09C59.62,5.8,50.73,0,45.9,0c-5.09,0-15.5,6.63-25.58,13.05-7.71,4.91-15.68,9.99-18.28,9.99-.73,0-1.34,.37-1.69,1.03-.23,.43-.34,.96-.34,1.64,0,9.64,30.5,74.29,45.9,74.29,14.54,0,46.33-61.86,46.33-73.68,0-.89-.15-1.59-.46-2.13Zm-36.49,6.3c2.5,1.24,4.72,3.05,6.43,5.23-1.71,.44-3.38,.79-4.95,1.04-.48-2.81-1.07-4.96-1.48-6.27h0s0,0,0,0Zm-7.5-1.94c1.85,.09,3.67,.44,5.39,1.04h0c.34,.96,1.23,3.59,1.89,7.41-2.39,.3-4.84,.46-7.28,.46v-8.91h0Zm0,10.67c2.65-.02,5.12-.17,7.55-.49h0c.35,2.53,.51,5.14,.48,7.76h-8.03v-7.27h0Zm0,9h7.99c-.11,2.41-.41,4.88-.89,7.35-2.37-.29-4.76-.46-7.1-.51v-6.84h0Zm-9.4-17.66c-.39,1.27-.96,3.36-1.43,6.09-2.15-.33-3.82-.69-4.85-.92,1.69-2.15,3.86-3.93,6.28-5.17Zm-7.36,6.69c1.18,.3,3.12,.75,5.65,1.14-.37,2.64-.54,5.36-.51,8.1h-8.06c.15-3.28,1.16-6.47,2.92-9.23Zm-2.92,10.97h8.1c.11,2.5,.41,5.04,.89,7.53-2.13,.33-4.25,.78-6.29,1.35-1.62-2.68-2.55-5.75-2.7-8.87Zm3.72,10.39c1.88-.5,3.77-.89,5.64-1.17,.56,2.45,1.32,4.91,2.27,7.33-3.13-1.29-5.86-3.43-7.91-6.17Zm14.23,7.55c-1.37-.06-2.72-.28-4.03-.63-1.36-3.25-2.32-6.04-2.85-8.32,2.21-.26,4.52-.39,6.87-.4v9.35Zm0-11.11c-2.48,.01-4.92,.16-7.25,.45-.47-2.44-.77-4.89-.88-7.29h8.13v6.84Zm0-8.57h-8.16c-.03-2.64,.13-5.29,.49-7.85,2.51,.33,5.09,.52,7.67,.57v7.28h0Zm0-9.04c-2.46-.05-4.95-.24-7.4-.55,.66-3.76,1.51-6.32,1.85-7.25,1.78-.64,3.64-1.01,5.55-1.1v8.91Zm1.73,28.72v-9.35c2.21,.05,4.47,.21,6.71,.48-.65,2.78-1.6,5.77-2.62,8.23-1.31,.36-2.69,.57-4.09,.64Zm6.15-1.33c.96-2.41,1.72-4.87,2.29-7.32,2.75,.4,4.81,.86,5.79,1.09-2.09,2.79-4.88,4.94-8.07,6.23Zm9.1-7.76h0c-1.07-.27-3.34-.82-6.44-1.28,.48-2.53,.79-5.08,.9-7.58h8.23c-.14,3.12-1.07,6.19-2.69,8.86Zm-5.5-10.59c.03-2.71-.14-5.42-.5-8.04,2.03-.32,3.91-.73,5.76-1.24,1.77,2.76,2.79,5.97,2.93,9.27h-8.19Z"/>
</svg>