<?xml version="1.0" encoding="UTF-8"?>
<svg xmlns="http://www.w3.org/2000/svg" viewBox="0 0 435 511.79">
  <defs>
    <style>
      .cls-1 {
        fill: #636088;
        fill-rule: evenodd;
      }
    </style>
  </defs>
  <g id="Camada_1" data-name="Camada 1" image-rendering="optimizeQuality" shape-rendering="geometricPrecision" text-rendering="geometricPrecision">
    <path class="cls-1" d="M336.64,290.5c6.13,3.87,13.03,11.56,21.55,16.42,11.98,6.85,34.18-2.6,45.54,14.3,6.62,9.83,6.94,17.56,7.42,25.19,.54,8.22,1.97,15.8,10.4,26.93,13.94,18.44,16.84,30.71,9.65,43.5-4.9,8.72-15.2,13.56-17.6,19.08-5.06,11.75,.54,20.6-6.4,34.3-4.83,9.51-12.27,15.76-22.18,18.95-8.36,2.7-16.76-1.2-23.45,1.62-11.77,4.94-20.44,16.43-29.81,19.34-7.09,2.19-14.52,2.23-21.61,0-9.35-2.91-18.04-14.38-29.81-19.34-6.71-2.82-15.09,1.08-23.45-1.62-9.91-3.19-17.35-9.44-22.18-18.95-6.96-13.7-1.33-22.55-6.42-34.3-2.4-5.52-12.7-10.36-17.6-19.09-7.18-12.78-4.27-25.05,9.65-43.49,8.43-11.14,9.86-18.71,10.4-26.93,.5-7.63,.8-15.36,7.43-25.19,11.35-16.9,33.56-7.45,45.53-14.3,8.52-4.86,15.41-12.55,21.55-16.42,10.51-6.65,20.89-6.67,31.39,0ZM239.01,46.25l81.35,85.51-82.72,1.37,1.37-86.88h0ZM71.57,389.57h103.35v-15.53H71.57v15.53Zm0-59.64H202.45c.9-4.8,2.42-9.89,5.15-15.53H71.57v15.53Zm0-59.64h210.83c2.27-1.84,4.54-3.56,6.94-5.07,1.09-.69,2.2-1.37,3.33-2.01v-8.45H71.57v15.53Zm0-178.89h72.82v-15.54H71.57v15.54h0Zm0,59.63h103.35v-15.53H71.57v15.53h0Zm0,59.63h220.81v-15.53H71.57v15.53Zm292.67-64.69s-4.12-9.38-9.86-14.98L234.55,4.99C232,1.83,228.16,0,224.1,0H24.35C10.88,0,0,10.88,0,24.35V441.08c0,13.44,10.9,24.34,24.35,24.34H201.89c-.82-5.05-.91-10.1-.96-15.2-2.31-1.98-4.73-4.09-7.13-6.55H21.75V21.63H213.19v122.3c0,7.48,6.05,13.66,13.66,13.66h115.64v102.22c3.65,1.53,6.97,3.38,10.18,5.41l2.15,1.51c3.43,2.37,6.35,4.84,9.42,7.46V145.97h0Zm-62.98,239.64l14.59,13.89,25.12-25.53c2.48-2.52,4.04-4.54,7.11-1.39l9.95,10.19c3.26,3.23,3.1,5.12,.02,8.13l-36.52,35.85c-6.49,6.36-5.36,6.76-11.95,.22l-25.06-24.93c-1.38-1.48-1.23-2.99,.28-4.47l11.54-11.98c1.73-1.82,3.12-1.7,4.92,.02Zm19.36-48.88c35.18,0,63.67,28.52,63.67,63.68s-28.51,63.67-63.67,63.67-63.67-28.52-63.67-63.67,28.51-63.68,63.67-63.68Z"/>
  </g>
</svg>