<?xml version="1.0" encoding="UTF-8"?><svg id="Camada_1" xmlns="http://www.w3.org/2000/svg" viewBox="0 0 1716.42 1980"><defs><style>.cls-1{fill:#fff;}</style></defs><g><circle class="cls-1" cx="1057.33" cy="550.91" r="184.76"/><circle class="cls-1" cx="872.57" cy="223.85" r="87.9"/><circle class="cls-1" cx="1538.85" cy="177.05" r="136.17"/><circle class="cls-1" cx="1404.2" cy="520.67" r="79.58"/><circle class="cls-1" cx="1296.19" cy="311.76" r="54.11"/><circle class="cls-1" cx="1641.61" cy="530.21" r="74.81" transform="translate(105.9 1316.09) rotate(-45)"/><circle class="cls-1" cx="1158.1" cy="111.93" r="111.93"/></g><g><path class="cls-1" d="M674.46,1112.51c-63.14,0-116.97,22.25-161.47,66.76-44.51,44.51-66.76,98.33-66.76,161.47s22.25,116.96,66.76,161.47c44.5,44.51,98.33,66.76,161.47,66.76s116.97-22.26,161.47-66.76c44.51-44.51,66.76-98.32,66.76-161.47s-22.25-116.97-66.76-161.47c-44.51-44.51-98.33-66.76-161.47-66.76Z"/><path class="cls-1" d="M1540.25,817.48c-3.68-67.8-49.93-125.62-115.9-141.74-66.91-16.34-128.74,10.78-163.9,58.74-5.5,7.51-11.58,20.08-16.36,30.99-11.12,25.39-30.8,46.39-55.97,58.01-29.76,13.74-71.41,21.74-130.8,21.74-243.42,0-281.3-199.46-281.3-347.14,0-65.95-54.12-119.25-120.37-117.93-57.38,1.15-106.55,45.07-114.42,101.92-.06,.43-.12,.85-.17,1.28-4.72,37.02-25.4,70.08-57.71,88.73L127.2,777.71C48.49,823.15,0,907.14,0,998.03v485.04c0,90.89,48.49,174.88,127.2,220.32l420.06,242.52c78.71,45.45,175.69,45.45,254.41,0l420.06-242.52c78.71-45.45,127.2-129.43,127.2-220.32,0,0-.06-73.37-.17-164.26-.18-148.86,59.84-289.13,158.26-400.82,23.93-27.16,35.32-61.98,33.23-100.52Zm-583.35,805.7c-77.98,77.98-172.13,116.97-282.44,116.97s-204.46-38.99-282.43-116.97c-77.98-77.97-116.97-172.12-116.97-282.43V770.17h171.17v241.92c66.19-47.16,142.26-70.75,228.23-70.75,110.31,0,204.46,38.99,282.44,116.97,77.97,77.98,116.97,172.13,116.97,282.44s-38.99,204.46-116.97,282.43Z"/></g></svg>