<?xml version="1.0" encoding="UTF-8"?>
<svg id="Camada_1" data-name="Camada 1" xmlns="http://www.w3.org/2000/svg" viewBox="0 0 1716.42 1676.52">
  <defs>
    <style>
      .cls-1 {
        fill: #363749;
        fill-rule: evenodd;
      }
    </style>
  </defs>
  <path class="cls-1" d="M550.91,594.68c-17.18,.7-30.17,4.19-39.11,10.2-5.03,3.35-8.8,7.82-11.17,12.99-2.65,5.73-3.91,12.71-3.63,20.81,.7,23.61,12.99,54.48,36.88,89.96l.28,.56h0l77.66,123.06c31.15,49.45,63.7,99.87,104.2,136.89,38.97,35.62,86.18,59.64,148.62,59.92,67.61,.14,117.19-24.86,157.28-62.44,41.77-39.11,74.73-92.75,107.28-146.25l87.3-143.87c16.34-37.16,22.21-62.02,18.44-76.55-2.23-8.66-11.73-12.99-28.08-13.69-3.49-.14-6.98-.28-10.62-.14-3.91,.14-7.96,.42-12.15,.7-2.37,.28-4.61,0-6.7-.42-7.82,.42-15.78-.14-23.89-1.26l29.89-132.42c-221.96,34.92-387.9-129.9-622.57-32.97l16.9,156.03c-9.64,.42-18.58,0-26.82-1.12h0Zm140.52,670.06c-42.74-48.61-46.37-99.59,0-153.51,52.52,13.27,100.71,35.76,145.13,66.21,10.62-3.49,22.49-4.33,34.08-2.65,47.07-33.94,107.7-47.35,160.5-72.63,62.58,60.9,55.87,117.05-5.73,169.3-37.16-8.52-72.36-22.07-105.88-39.81-.42,9.08-2.65,19.14-7.12,30.31l68.44,237.46c52.94-111.19,107.97-221.68,120.55-347.95-20.95-24.58-43.16-57.13-62.44-85.35-5.73-8.38-11.03-16.2-16.2-23.61-42.32,31.01-93.17,50.43-158.26,50.15-69.98-.14-123.9-25.14-168.46-62.86-.28,.42-.56,.98-.84,1.4-7.26,10.06-15.37,21.93-24.17,34.78-16.48,24.17-34.92,51.26-53.08,74.03,23.47,146.39,79.62,249.33,130.46,359.26l68.44-237.46c-8.8-14.81-12.85-27.66-13.41-38.83-35.06,19.97-72.77,32.97-112.03,41.77h0Zm358.43-244.44c5.45,7.82,11.59,16.76,18.02,26.12,12.01,17.6,25.28,37.02,38.41,54.76,90.79,78.36,350.46,94.57,447.54,148.76,30.87,17.18,58.95,39.25,81.43,68.86,34.08,44.98,55.03,103.92,60.76,178.65l20.39,91.21c-5.03,52.8-34.92,83.25-94.01,87.86H94.01c-58.95-4.47-88.98-34.92-94.01-87.86l20.39-91.21c5.73-74.73,26.68-133.54,60.76-178.65,22.49-29.75,50.43-51.68,81.43-68.86,92.19-51.4,330.91-68.58,432.6-137.31,15.92-20.53,32.27-44.7,47.07-66.21,9.08-13.41,17.6-25.84,24.72-35.62,1.26-1.68,2.65-3.07,4.33-4.19-37.57-38.55-67.75-85.21-96.52-131.02l-77.52-123.34c-28.36-42.32-43.02-80.88-44-112.58-.42-14.95,2.1-28.5,7.54-40.37,5.73-12.43,14.67-22.91,26.68-31.01,5.59-3.77,11.87-6.98,18.86-9.64-5.03-66.91-6.84-151.14-3.63-221.68,1.68-16.76,4.89-33.52,9.5-50.15,19.83-70.82,69.56-127.81,131.02-166.92,21.65-13.83,45.4-25.28,70.54-34.36C758.34,69.34,736.69,1.17,786.13,.05c115.8-2.65,305.49,95.26,379.52,175.3,43.02,46.65,70.12,108.25,75.85,189.97l-4.89,201.14h0c21.51,6.57,35.2,20.11,40.93,42.18,6.29,24.44-.56,58.95-21.23,105.88h0c-.42,.84-.84,1.68-1.26,2.51l-88.42,145.55c-34.08,56.01-68.58,112.3-114.82,155.47l-1.96,2.23h0Z"/>
</svg>