<?xml version="1.0" encoding="UTF-8"?>
<svg id="Layer_1" data-name="Layer 1" xmlns="http://www.w3.org/2000/svg" viewBox="0 0 185.35 206.84">
  <defs>
    <style>
      .cls-1 {
        fill: #363749;
      }

      .cls-2 {
        fill: none;
      }
    </style>
  </defs>
  <rect class="cls-2" width="185.35" height="206.84"/>
  <g>
    <path id="id_101" data-name="id 101" class="cls-1" d="M94.5,96.46v-9.89h26.19v15.33h-16.4c-.04,.44-.14,.87-.3,1.28h17.98v-17.89h-28.75v10.76c.19,.1,.52,.24,.98,.34,.1,.02,.2,.05,.3,.07Z"/>
    <path id="id_102" data-name="id 102" class="cls-1" d="M101.97,105.59h21.53v-1.45h-20c-.08,.11-.16,.23-.24,.33-.36,.45-.8,.83-1.28,1.12Z"/>
    <path id="id_103" data-name="id 103" class="cls-1" d="M89.31,69.46l1.9-.46-.79,1.79-2.48,5.62c.13,.09,.26,.18,.38,.27,.24,.19,.47,.39,.68,.61,2.06-1.98,3.35-4.76,3.35-7.85,0-.83-.1-1.64-.27-2.42l-19.94-3.17c-.98,1.63-1.55,3.55-1.55,5.59,0,.44,.03,.87,.08,1.3,2.1,.35,4.35,.63,6.13,.63,4.62,0,12.42-1.89,12.5-1.91Z"/>
    <path id="id_104" data-name="id 104" class="cls-1" d="M63.64,151.06c0,1.07,.87,1.93,1.93,1.93h25.96c1.07,0,1.93-.87,1.93-1.93v-25.27h-13.27s0-.08,0-.12v-23.25c0-8.37-6.79-15.16-15.16-15.16h-2.02c-8.37,0-15.16,6.79-15.16,15.16v23.25h0c0,3.95,7.2,6.04,14.81,6.26,.32,0,.64,.01,.97,.02v19.11h0Z"/>
    <path id="id_105" data-name="id 105" class="cls-1" d="M102.58,112.74h-15.68v-10.64c1.63,1.63,3.57,2.33,5.29,2.76,1.95,.46,3.78,.55,5.19,.56,1.44,0,2.43-.11,2.53-.12,2.12-.23,3.66-2.14,3.42-4.27-.23-2.12-2.15-3.66-4.27-3.42-.09,0-.77,.07-1.68,.07-1.02,0-2.34-.09-3.37-.34-1.06-.24-1.67-.68-1.67-.74-.68-.83-1.2-2.13-1.49-3.81-.46-2.53-.34-5.64-.46-8.47-.09-1.44-.16-2.8-.8-4.42-.33-.8-.88-1.72-1.85-2.47-.31-.24-.66-.44-1.02-.61l2.83-6.43s-7.94,1.93-12.73,1.93-12.73-1.93-12.73-1.93l2.6,5.9h-2.2c-.29,0-.58,.04-.85,.1-1.49,.2-2.69,.77-3.92,1.45-2.2,1.28-4.37,3.14-6.16,5.5-1.76,2.35-3.22,5.24-3.25,8.66,0,.16,.01,.33,.02,.5,2.95-3.77,7.55-6.21,12.7-6.21h2.02c8.89,0,16.13,7.24,16.13,16.13v22.4h15.35v21.03c0,3.34,2.71,6.04,6.04,6.04s6.04-2.71,6.04-6.04v-27.08c0-1.59-.64-3.15-1.77-4.27-1.13-1.13-2.68-1.77-4.27-1.77Z"/>
    <path id="id_106" data-name="id 106" class="cls-1" d="M100.23,67.34l.26-1.61-7.2-1.15,.51-6.81s-2.94-3.08-9.2-4.07c-6.26-1-10.01,1.02-10.01,1.02l-1.63,6.64-7.21-1.15-.26,1.61,34.74,5.53Z"/>
    <polygon id="id_107" data-name="id 107" class="cls-1" points="89.13 110.23 127.17 110.23 127.17 153.42 130.31 153.42 130.31 110.23 137.48 110.23 137.48 107.33 89.13 107.33 89.13 110.23"/>
  </g>
</svg>