<?xml version="1.0" encoding="UTF-8"?>
<svg id="Camada_1" data-name="Camada 1" xmlns="http://www.w3.org/2000/svg" viewBox="0 0 1718.23 1851.11">
  <defs>
    <style>
      .cls-1 {
        fill: #636680;
        fill-rule: evenodd;
      }
    </style>
  </defs>
  <path class="cls-1" d="M994.24,1015.64h582.99c77.83,.25,140.84,63.32,141,141.15v553.16c-.17,77.83-63.17,140.9-141,141.15H994.24c-77.89-.17-140.99-63.26-141.15-141.15v-553.16c.25-77.85,63.3-140.9,141.15-141.15Zm-685.43,2.41c-23.78-1.3-42.13-21.4-41.28-45.19-1.26-23.68,16.91-43.9,40.58-45.16,.23-.01,.46-.02,.69-.03h352.2c23.78,1.3,42.13,21.4,41.28,45.19,1.26,23.68-16.91,43.9-40.58,45.16-.23,.01-.46,.02-.69,.03H308.82ZM1322.49,274.03h148.08c27.97-.11,54.81,11.08,74.42,31.03,19.89,19.73,31.11,46.56,31.18,74.57v499.83h-90.39V379.63c.06-4.06-1.51-7.97-4.37-10.85-2.87-2.76-6.71-4.28-10.7-4.22h-148.68V879.46h-90.39V105.46c0-8.32-6.74-15.06-15.06-15.06H105.45c-4-.02-7.85,1.55-10.7,4.37-2.82,2.84-4.39,6.69-4.37,10.7V1361.22c0,8.32,6.74,15.06,15.06,15.06H690.7v90.39H344.22v168.27c0,8.32,6.74,15.06,15.06,15.06h331.41v90.39H359.28c-58.07-.41-105.04-47.38-105.45-105.45v-168.12H105.45C47.38,1466.41,.41,1419.43,0,1361.37V105.46C-.04,77.5,11.14,50.69,31.03,31.04,50.75,11.25,77.51,.08,105.45,0H1216.89c28.28-.32,55.47,10.89,75.32,31.03,19.52,19.84,30.4,46.59,30.28,74.42v168.57ZM307.76,431.6c-23.78-1.3-42.13-21.4-41.28-45.19-1.34-23.59,16.69-43.8,40.28-45.15,.33-.02,.66-.03,1-.05H1013.22c23.78,1.3,42.13,21.4,41.28,45.19,1.26,23.68-16.91,43.9-40.58,45.16-.23,.01-.46,.02-.69,.03H307.76Zm0,293.15c-23.81-1.22-42.21-21.37-41.28-45.19-1.34-23.59,16.69-43.8,40.28-45.15,.33-.02,.66-.03,1-.05H1013.22c23.81,1.22,42.21,21.37,41.28,45.19,1.34,23.59-16.69,43.8-40.28,45.15-.33,.02-.66,.03-1,.05H307.76Zm1159.95,682.26c12.22-.5,23.87,5.16,31.03,15.06,16.27,24.4-5.88,48.51-21.39,65.53-43.69,47.9-142.66,135.58-164.2,160.13-12.14,15.43-34.49,18.1-49.92,5.97-2.22-1.74-4.22-3.75-5.97-5.97-21.99-26.66-126.09-118.71-167.67-165.41-15.06-16.27-32.24-38.41-17.17-60.26,7.16-9.91,18.82-15.56,31.03-15.06h77.73v-139.5c.08-24.18,19.66-43.75,43.84-43.84h122.02c24.18,.08,43.75,19.66,43.84,43.84v139.5h76.83Z"/>
</svg>