<?xml version="1.0" encoding="UTF-8"?>
<svg id="Camada_1" data-name="Camada 1" xmlns="http://www.w3.org/2000/svg" viewBox="0 0 1704.51 1737.41">
  <defs>
    <style>
      .cls-1 {
        fill: #636680;
        fill-rule: evenodd;
      }
    </style>
  </defs>
  <path class="cls-1" d="M788,675.67l-36.2-165.88c119.5,22.34,294.29,214.53,405.3,366.69-79.05,50.2-127.27,122.47-127.27,208.16-.02,12.18,.97,24.33,2.97,36.34-54.8-19.23-112.48-28.94-170.55-28.71-76.18-.96-151.51,16.2-219.76,50.06-86.55,45.39-140.28,117.8-140.28,206.04-.1,24.11,4.07,48.05,12.3,70.71-1.56,4.53-3.11,9.19-4.38,14.14h0c-5.14,17.7-7.8,36.02-7.92,54.44-.05,23.37,3.92,46.57,11.74,68.59l-3.11,9.62c-5.54,18.35-8.44,37.4-8.63,56.57-.13,40.94,11.98,80.98,34.79,114.97h-10.61c-168-8.63-427.78-8.34-494.95-180.73-110.16-278.87,90.51-610.35,273.5-813.28,23.56-26.13,48.49-51.01,74.67-74.53,66.61-58.55,138.45-127.27,224-156.97l-82.73,154.14,120.2-159.38h63.35l83.58,168.99Zm280.57,912.98c6.36,10.24,9.79,22.03,9.9,34.08,0,62.79-97.15,113.13-216.93,113.13s-217.07-50.91-217.07-113.13c.15-12.05,3.57-23.83,9.9-34.08,28.28,46.24,110.02,79.76,207.17,79.76s179.6-33.52,207.03-79.76Zm623.78-40.44c7.91,12.74,12.13,27.43,12.16,42.42,0,76.93-119.21,139.44-266,139.44s-265.15-63.21-265.15-140.14c0-15,4.22-29.7,12.16-42.42,33.8,56.57,134.63,97.72,253.7,97.72s220.04-41.15,254.55-97.72l-1.41,.71Zm0-168.57c7.88,12.75,12.09,27.43,12.16,42.42,0,76.93-119.21,139.44-266,139.44s-265.15-62.79-265.15-140.14c.04-15,4.25-29.68,12.16-42.42,33.8,56.57,134.63,97.72,253.7,97.72s220.04-41.15,254.55-97.72l-1.41,.71Zm-157.82-351.28l-3.11,34.65-130.38-11.31c10.8,13.82,18.43,29.85,22.34,46.95l-31.39-2.83c-3.04-10.96-7.82-21.37-14.14-30.83-6.47-10.54-15.85-18.99-27.01-24.32l2.4-28.28,181.44,15.7-.14,.28Zm-96.02-54.16c120.63,0,218.49,38.46,218.49,85.7s-97.86,85.27-218.49,85.27-218.49-38.04-218.49-84.85,97.86-85.7,218.49-85.7v-.42Zm0-28.28c146.79,0,266,62.51,266,139.44s-119.21,139.44-266,139.44-265.15-62.65-265.15-139.58,119.07-139.44,265.86-139.44l-.71,.14Zm254.55,270.24c7.21,12.12,11.11,25.92,11.31,40.02,0,76.93-119.21,139.44-266,139.44s-265.01-62.65-265.01-139.58c-.18-14.08,3.44-27.96,10.46-40.16,32.81,57.41,134.34,98.99,254.55,98.99s221.88-42.42,254.55-98.99l.14,.28Zm-753.18,85.84l-2.55,28.28-106.49-9.33c8.8,11.29,15.03,24.37,18.24,38.32l-25.6-1.98c-2.46-8.97-6.38-17.47-11.6-25.17-5.34-8.55-12.99-15.41-22.06-19.8l1.7-23.19,148.06,12.87h.28Zm-77.64-43.7c98.99,0,178.32,31.39,178.32,70.71s-79.9,70.71-178.32,70.71-178.32-31.39-178.32-70.71,79.33-70.71,178.32-70.71Zm0-23.19c119.78,0,216.93,51.05,216.93,113.84s-97.15,113.13-216.93,113.13-217.07-50.91-217.07-113.13,96.59-114.41,217.07-114.41v.57Zm207.74,220.61c5.91,9.88,9.08,21.16,9.19,32.67,0,62.65-97.15,113.13-216.93,113.13s-217.07-51.05-217.07-113.13c.09-11.51,3.27-22.79,9.19-32.67,26.73,46.81,109.6,81.03,207.88,81.03s181.01-34.22,207.74-81.03ZM598.36,286.77c-25.74-75.94-48.93-152.73-68.45-230.51,72.97-80.04,354.95-69.43,435.98-1.27l-75.37,178.32c40.44-53.17,54.02-74.95,78.06-104.51,9.96,6.69,19.42,14.11,28.28,22.2,21.35,19.37,40.44,40.73,44.26,70.71,2.42,21.69-5,43.33-20.22,58.97l-171.54,200.53c-22.08-3.53-43.8-9.02-64.91-16.4,9.76-23.05,21.64-48.36,31.39-70.71l-62.79,67.74c-56.22-14.13-115.69-6.87-166.87,20.36l-174.65-210.28c-9.41-10.31-14.78-23.67-15.13-37.62,0-50.63,75.66-94.32,115.25-110.87l86.69,163.33Z"/>
</svg>