<?xml version="1.0" encoding="UTF-8"?>
<svg id="Camada_1" data-name="Camada 1" xmlns="http://www.w3.org/2000/svg" viewBox="0 0 185 205">
  <rect width="185" height="205" style="fill: none;"/>
  <path d="M129.02,81.85c-.34-.6-.91-.92-1.6-.92-3,0-9.91-4.51-16.59-8.87-7.53-4.91-14.64-9.56-18.51-9.56-4.07,0-12.4,5.3-20.47,10.44-6.17,3.93-12.54,7.99-14.63,7.99-.58,0-1.08,.3-1.35,.82-.18,.34-.27,.77-.27,1.31,0,7.71,24.4,59.44,36.72,59.44,11.63,0,37.06-49.48,37.06-58.95,0-.72-.12-1.27-.37-1.7Zm-29.19,5.04c2,1,3.78,2.44,5.15,4.19-1.37,.36-2.7,.64-3.96,.83-.38-2.25-.86-3.97-1.19-5.02h0s0,0,0,0Zm-6-1.55c1.48,.07,2.93,.35,4.31,.83h0c.27,.77,.99,2.87,1.51,5.93-1.91,.24-3.87,.36-5.83,.37v-7.13h0Zm0,8.54c2.12-.01,4.1-.14,6.04-.39h0c.28,2.02,.41,4.11,.39,6.2h-6.42v-5.82h0Zm0,7.2h6.39c-.09,1.93-.33,3.91-.71,5.88-1.9-.23-3.81-.37-5.68-.41v-5.47h0Zm-7.52-14.13c-.31,1.02-.77,2.69-1.15,4.87-1.72-.27-3.06-.55-3.88-.74,1.35-1.72,3.09-3.14,5.02-4.13Zm-5.89,5.35c.95,.24,2.5,.6,4.52,.91-.3,2.11-.43,4.29-.41,6.48h-6.45c.12-2.62,.93-5.18,2.33-7.39Zm-2.33,8.77h6.48c.09,2,.33,4.03,.71,6.02-1.7,.26-3.4,.63-5.03,1.08-1.3-2.14-2.04-4.6-2.16-7.1Zm2.98,8.32c1.5-.4,3.02-.71,4.51-.93,.45,1.96,1.06,3.93,1.82,5.87-2.5-1.03-4.69-2.74-6.33-4.93Zm11.38,6.04c-1.09-.05-2.18-.22-3.22-.51-1.09-2.6-1.86-4.84-2.28-6.66,1.76-.21,3.61-.31,5.5-.32v7.48Zm0-8.89c-1.98,0-3.93,.13-5.8,.36-.38-1.95-.62-3.91-.7-5.83h6.5v5.47Zm0-6.86h-6.53c-.03-2.12,.11-4.23,.39-6.28,2.01,.26,4.07,.42,6.14,.46v5.82h0Zm0-7.23c-1.97-.04-3.96-.19-5.92-.44,.53-3.01,1.21-5.05,1.48-5.8,1.42-.51,2.92-.81,4.44-.88v7.13Zm1.38,22.97v-7.48c1.76,.04,3.57,.17,5.37,.38-.52,2.22-1.28,4.61-2.1,6.58-1.05,.29-2.15,.46-3.27,.51Zm4.92-1.06c.77-1.93,1.38-3.9,1.83-5.85,2.2,.32,3.84,.69,4.63,.87-1.67,2.23-3.9,3.95-6.46,4.98Zm7.28-6.21h0c-.86-.22-2.67-.66-5.15-1.02,.39-2.02,.63-4.06,.72-6.07h6.58c-.11,2.5-.85,4.95-2.15,7.09Zm-4.4-8.47c.02-2.17-.11-4.33-.4-6.43,1.62-.26,3.13-.58,4.61-.99,1.42,2.21,2.23,4.78,2.35,7.42h-6.55Z" style="fill: #636380;"/>
</svg>